<svg height="480pt" viewBox="0 0 480 480.02075" width="480pt" xmlns="http://www.w3.org/2000/svg"><path d="m423.914062 72c0-4.417969-3.582031-8-8-8h-224c-4.417968 0-8 3.582031-8 8v32c0 4.417969 3.582032 8 8 8 4.417969 0 8-3.582031 8-8v-24h208v48h-176c-4.417968 0-8 3.582031-8 8s3.582032 8 8 8h184c4.417969 0 8-3.582031 8-8zm0 0"/><path d="m327.914062 192c4.417969 0 8-3.582031 8-8s-3.582031-8-8-8h-48c-4.417968 0-8 3.582031-8 8v48c0 4.417969 3.582032 8 8 8h48c4.417969 0 8-3.582031 8-8s-3.582031-8-8-8h-40v-32zm0 0"/><path d="m423.914062 184c0-4.417969-3.582031-8-8-8h-48c-4.417968 0-8 3.582031-8 8v48c0 4.417969 3.582032 8 8 8h48c4.417969 0 8-3.582031 8-8zm-16 40h-32v-32h32zm0 0"/><path d="m335.914062 272c0-4.417969-3.582031-8-8-8h-48c-4.417968 0-8 3.582031-8 8v48c0 4.417969 3.582032 8 8 8h48c4.417969 0 8-3.582031 8-8zm-16 40h-32v-32h32zm0 0"/><path d="m327.914062 352h-48c-4.417968 0-8 3.582031-8 8v48c0 4.417969 3.582032 8 8 8h48c4.417969 0 8-3.582031 8-8v-48c0-4.417969-3.582031-8-8-8zm-8 48h-32v-32h32zm0 0"/><path d="m415.914062 264h-48c-4.417968 0-8 3.582031-8 8v136c0 4.417969 3.582032 8 8 8h48c4.417969 0 8-3.582031 8-8v-136c0-4.417969-3.582031-8-8-8zm-8 136h-32v-120h32zm0 0"/><path d="m383.914062 112c4.417969 0 8-3.582031 8-8s-3.582031-8-8-8h-32c-4.417968 0-8 3.582031-8 8s3.582032 8 8 8zm0 0"/><path d="m319.914062 112c4.417969 0 8-3.582031 8-8s-3.582031-8-8-8h-32c-4.417968 0-8 3.582031-8 8s3.582032 8 8 8zm0 0"/><path d="m439.914062 0h-272c-22.09375 0-40 17.910156-40 40v64c0 4.417969 3.582032 8 8 8 4.417969 0 8-3.582031 8-8v-64c0-13.253906 10.746094-24 24-24h272c13.253907 0 24 10.746094 24 24v400c0 13.253906-10.746093 24-24 24h-216c-4.417968 0-8 3.582031-8 8s3.582032 8 8 8h216c22.089844 0 40-17.910156 40-40v-400c0-22.089844-17.910156-40-40-40zm0 0"/><path d="m231.914062 184v48c0 4.417969 3.582032 8 8 8 4.417969 0 8-3.582031 8-8v-48c0-4.417969-3.582031-8-8-8-4.417968 0-8 3.582031-8 8zm0 0"/><path d="m127.914062 312c8.835938 0 16 7.164062 16 16 0 4.417969 3.582032 8 8 8 4.417969 0 8-3.582031 8-8-.011718-14.582031-9.878906-27.3125-24-30.960938v-17.039062c0-4.417969-3.582031-8-8-8-4.417968 0-8 3.582031-8 8v17.039062c-15.558593 4.066407-25.679687 19.042969-23.652343 34.996094 2.023437 15.949219 15.574219 27.917969 31.652343 27.964844 8.835938 0 16 7.164062 16 16s-7.164062 16-16 16c-8.835937 0-16-7.164062-16-16 0-4.417969-3.582031-8-8-8-4.417968 0-8 3.582031-8 8 .011719 14.582031 9.878907 27.3125 24 30.960938v17.039062c0 4.417969 3.582032 8 8 8 4.417969 0 8-3.582031 8-8v-17.039062c15.554688-4.066407 25.679688-19.042969 23.652344-34.996094-2.027344-15.949219-15.574218-27.917969-31.652344-27.964844-8.835937 0-16-7.164062-16-16s7.164063-16 16-16zm0 0"/><path d="m238.875 416c2.207031-3.84375.882812-8.75-2.960938-10.960938-3.84375-2.207031-8.75-.882812-10.960937 2.960938-23.394531 40.632812-69.628906 62.390625-115.851563 54.527344-46.222656-7.867188-82.652343-43.695313-91.292968-89.78125-8.636719-46.085938 12.347656-92.675782 52.585937-116.746094h115.039063c33.761718 20.207031 54.445312 56.652344 54.480468 96 0 4.417969 3.582032 8 8 8 4.417969 0 8-3.582031 8-8-.03125-39.476562-18.273437-76.730469-49.441406-100.960938 7.09375-5.457031 10.5625-14.40625 9-23.214843-1.566406-8.8125-7.902344-16.023438-16.4375-18.703125 5.742188-7.113282 8.875-15.980469 8.878906-25.121094v-24c-.019531-13.300781-8.261718-25.203125-20.707031-29.894531-12.445312-4.695313-26.496093-1.199219-35.292969 8.773437-6.074218-6.886718-14.816406-10.832031-24-10.832031-9.183593 0-17.925781 3.945313-24 10.832031-8.796874-9.972656-22.847656-13.46875-35.292968-8.773437-12.445313 4.691406-20.6875 16.59375-20.707032 29.894531v24c.003907 9.140625 3.136719 18.007812 8.878907 25.121094-8.535157 2.679687-14.875 9.890625-16.4375 18.703125-1.5625 8.808593 1.90625 17.757812 9 23.214843-40.757813 31.746094-58.433594 84.882813-44.820313 134.714844 13.617188 49.835938 55.855469 86.601563 107.089844 93.214844 51.238281 6.613281 101.425781-18.222656 127.25-62.96875zm-174.960938-256c0-8.835938 7.164063-16 16-16 8.835938 0 16 7.164062 16 16 0 4.417969 3.582032 8 8 8 4.417969 0 8-3.582031 8-8 0-8.835938 7.164063-16 16-16 8.835938 0 16 7.164062 16 16 0 4.417969 3.582032 8 8 8 4.417969 0 8-3.582031 8-8 0-8.835938 7.164063-16 16-16 8.835938 0 16 7.164062 16 16v24c0 13.253906-10.746093 24-24 24h-80c-13.253906 0-24-10.746094-24-24zm0 64h128c4.417969 0 8 3.582031 8 8s-3.582031 8-8 8h-128c-4.417968 0-8-3.582031-8-8s3.582032-8 8-8zm0 0"/></svg>